<?xml version="1.0" encoding="utf-8"?>
<!-- Generator: Adobe Illustrator 24.3.0, SVG Export Plug-In . SVG Version: 6.00 Build 0)  -->
<svg version="1.1" id="Layer_1" xmlns="http://www.w3.org/2000/svg" xmlns:xlink="http://www.w3.org/1999/xlink" x="0px" y="0px"
	 viewBox="0 0 390.4 99.8" style="enable-background:new 0 0 390.4 99.8;" xml:space="preserve">
<style type="text/css">
	.st0{fill:#393939;}
</style>
<g id="crack_and_code">
	<path class="st0" d="M331.5,38.2c1-6.4,2-13.7,3.1-21.2h11.2c-2.9,21.5-6,42.7-8.9,64.2h-10.7c-0.1-1.1-0.2-2.3-0.4-3.6
		c-0.4,0.1-0.8,0.3-1.2,0.5c-2.5,1.4-5,3.4-7.6,4.1c-9.2,2.3-16.6-4.5-17.4-16.1c-1.1-16.5,7.6-31.8,20.7-31.5
		C323.8,34.8,327.4,37,331.5,38.2z M329,56c0-5.9-3.2-10-7.7-10c-5.5,0.1-10.4,7.2-10.4,15.1c0,5.8,2.9,10,7.2,9.8
		C324,71,329.1,64.1,329,56z"/>
	<path class="st0" d="M165,16.9h11.2c-1.6,11.5-3.1,22.6-4.6,33.7c0.2,0.2,0.4,0.3,0.6,0.5c3.7-5.1,7.4-10.3,11-15.4h12
		c0.3,0.3,0.5,0.8,0.6,1.2l-15.3,20.1c1.9,4.4,3.8,8.7,5.7,12.9c2.5-0.6,4-1.1,6.1-1.5c0.9,2.8,1.9,5.9,2.7,8.6
		c-6.6,8.9-16.9,7.2-21-3.1c-1.2-3.5-2.7-6.8-4.5-9.8c-0.9,5.8-1.7,11.5-2.6,17.3h-11C159,59.7,162,38.4,165,16.9z"/>
	<path class="st0" d="M103.3,38.2l0.9-2.5h10.8c-2.1,15.4-4.2,30.4-6.3,45.7H98.1c-0.1-0.9-0.4-2.2-0.5-3.6
		c-0.5,0.2-0.9,0.3-1.2,0.5c-1.2,0.8-2.4,1.9-3.6,2.7c-11.4,6.4-22.6-3.8-21.4-19.5s9.2-26.6,20.4-26.6
		C95.4,34.8,99.2,36.8,103.3,38.2z M100.8,56c0-5.9-3.2-10-7.7-10c-5.5,0-10.4,7.2-10.4,15.1c0,5.8,2.9,10,7.2,10
		C95.9,71,101,64.1,100.8,56z"/>
	<path class="st0" d="M385.5,61.9h-28.4c1.1,10.3,8.9,11.7,20,3.7c1.7,2.3,3.5,4.8,5.2,7.4c-6.6,9.8-20.6,12.5-29.3,6.5
		c-6.5-4.5-8.8-14.6-6-25.2c4.1-14.1,15.9-22.2,27.6-19.2C383.3,37.6,388.1,48.5,385.5,61.9z M375.6,52.9c-1.1-5.1-3.8-6.5-7.3-6.9
		c-4.3-0.3-7.6,2.3-8.7,6.9H375.6z"/>
	<path class="st0" d="M278.8,34.5c12.4,0,19.6,12.1,16,27.3s-17.1,24.3-29.2,19.8c-8.8-3.3-13-14.5-10-26.8
		C258.7,42.8,268.2,34.5,278.8,34.5z M284.8,56.5c-0.1-5.3-3.5-9.6-7.7-9.8c-5.5-0.1-11.5,7.4-11.4,14.2c0.2,5.3,3.6,9.5,7.8,9.5
		C278.8,70.3,284.8,63,284.8,56.5L284.8,56.5z"/>
	<path class="st0" d="M148,65.2c1.2,3.6,2.4,6.7,3.6,10.1c-7.1,6.5-14.7,8.9-23,5.9c-8.9-3.1-12.9-14.3-9.7-26.8
		c4.9-19.3,24.7-26.5,37.5-12.8c-2,3.3-4.1,6.5-6.3,10c-3.7-3.3-7.6-5.8-11.8-3.9c-2.3,0.9-4.4,2.5-6.2,4.5
		c-2.8,3.1-3.6,8.1-1.9,12.3c1.6,3.7,5.6,5.9,9.7,5c1.4-0.4,2.7-0.9,4-1.6C145,67.4,146.3,66.4,148,65.2z"/>
	<path class="st0" d="M42.7,41.7c-2.4,3.6-4.3,6.7-6.4,10c-3.7-3.4-7.6-5.6-11.9-3.9c-1.9,0.7-3.7,1.9-5.2,3.4
		c-3.5,3.6-4.5,9.5-2.7,13.5c1.7,4,6.1,6.1,10.5,4.5c2.4-0.8,4.6-2.3,7.3-3.7c1.1,3.1,2.2,6.4,3.5,9.8c-7.2,6.7-14.8,8.9-23,5.9
		S3,69.8,4.5,58.3c1.4-10.9,6.6-18.4,14.8-22C27.5,32.8,35.4,33.3,42.7,41.7z"/>
	<path class="st0" d="M246.4,65.2c1.4,3.6,2.5,6.7,3.7,10.1c-7.3,6.7-15,9-23.5,5.8c-8.7-3.4-12.2-13.5-9.4-26
		c4.2-19.5,25.1-27.3,37.6-13.4c-2,3.3-4,6.5-6.2,10c-3.7-3.4-7.4-5.5-11.9-4.1c-4.5,1.3-8,5.7-8.9,11.4c-0.6,4.4,1.6,8.6,5.5,10.1
		C238,71.1,242,68.5,246.4,65.2z"/>
	<path class="st0" d="M48.9,35.7c1.2-0.1,2-0.3,2.7-0.5h7.7c0.1,1.6,0.4,3.1,0.6,5c3.6-4.2,7.3-7.2,12.5-5.1
		c-0.6,4.4-1.1,8.4-1.7,12.9c-1.4,0-2.6-0.2-3.7-0.2c-5.3,0-8.8,3.3-9.9,10c-1.2,7.6-2.2,15.3-3.4,23.3H42.6
		C44.7,66.1,46.8,51.2,48.9,35.7z"/>
</g>
</svg>
