<?xml version="1.0" encoding="utf-8"?>
<!-- Generator: Adobe Illustrator 24.3.0, SVG Export Plug-In . SVG Version: 6.00 Build 0)  -->
<svg version="1.1" id="Layer_1" xmlns="http://www.w3.org/2000/svg" xmlns:xlink="http://www.w3.org/1999/xlink" x="0px" y="0px"
	 viewBox="0 0 502.8 470.9" style="enable-background:new 0 0 502.8 470.9;" xml:space="preserve">
<style type="text/css">
	.st0{fill:#868689;}
</style>
<g id="q8MY1q">
	<path class="st0" d="M0,14.6V0h70c4.9,3.5,8.3,8.8,9.5,14.7c2.4,10.2,5.7,20.2,8.6,30.3c1.3,4.6,2.5,9.2,3.9,14.3h234.4
		c-14,26.5-14.9,53-6.2,81.1H196.6c-13.6,0-27.2,0-40.8,0c-13.4,0-26.9-0.2-41.3,0.2c2.6,9.1,4.8,16.7,7.1,24.7h212.4
		c43,52,112.8,59.9,168.9,27.1c-3.2,11-6,20.8-8.6,30c-1.4,0.7-1.7,1-2.1,1c-116.2,0.1-232.5,0.2-348.7,0.2c-1.2,0-2.3,0.1-3.5,0.3
		c-0.4,0.1-0.7,0.3-1,0.5c-0.4,0.3-0.7,0.6-1,1c2.1,7,4.2,14.3,6.6,22.2h342.3c-4.2,14.8-7.7,28.7-12.3,42.3
		c-2.3,6.7-5.7,13-10.2,18.5c-11.6,14-27.5,20.5-47.3,20.4c-78.5-0.2-157.1-0.1-235.6-0.1h-13.9c3.2,17.1,8.2,32.5,12.7,47.8
		c27.6,1.4,45.5,13,54.2,35.4h121.5c1.3-2.7,2.5-4.8,3.5-7.1c7.9-18.1,34.8-33.4,61.8-25.8c21.2,6,36.6,20.2,37.6,44.1
		c0.8,18-9.7,36.3-34.9,44.8c-3.6,1.2-7.3,2-11,3h-14c-1.6-0.8-3.3-1.5-5-2.1c-15.6-3.5-26.6-12.1-33.9-24.8c-1.5-2.7-2.7-5.6-4-8.4
		H235.1c-0.6,0.6-1.2,1.3-1.7,2c-7,17.3-20.1,28.4-40.6,32c-0.6,0.1-1.1,0.9-1.6,1.4h-16.3c-1.6-0.8-3.2-1.6-4.9-2.1
		c-36.9-9-47.9-47-29.2-71c4.1-5.3,9.7-9.7,14.9-14.9C122.4,263.3,89.1,143.2,55.6,22.8H7.8L0,14.6z"/>
</g>
</svg>
