<svg id="Layer_1" data-name="Layer 1" xmlns="http://www.w3.org/2000/svg" viewBox="0 0 553.9 502.77"><path d="M143.16,447.26c6.13-13.36,3.21-26.58,1.75-39.67-2-18.33-4.59-36.63-1.4-55,5.64-32.66,25-54.44,54.12-67.92,27.68-12.78,57.14-17.54,87.25-15.71,10,.61,20.45,4.91,29.4,9.9,34.27,19.12,54.85,49.76,67.81,86.15,9.2,25.85,12.62,52.73,13.34,80.06.09,3.34-.82,5.15-3.92,6.7-35,17.66-70,35.52-105,53.16-1.91,1-4.88,1.38-6.75.59C234.41,486.29,189.16,466.91,143.16,447.26Z" transform="translate(-4.55 -3.12)" style="fill:#868686"/><path d="M4.64,277.55c0-8.38,0-16,0-23.57,0-64,.24-128-.09-192.08,0-7.29,2.26-9.38,8.85-10.45C56,44.52,98.51,37.21,141.06,30.08c1.7-.29,3.73-.51,5.21.15,16.25,7.18,32.51,14.35,48.55,22,3.7,1.76,6.86,5,9.76,8.07,8.67,9.12,8.37,18.59-1.24,26.77-4.53,3.86-9.68,7.57-15.18,9.55-6.78,2.43-7.81,6.46-8.12,13-1.81,37.57-10.47,73.26-31,105.22C123.86,254,87,273.54,41.62,277.4,29.73,278.41,17.68,277.55,4.64,277.55Z" transform="translate(-4.55 -3.12)" style="fill:#868686"/><path d="M255.6,10.7c15.62-2.64,31.51-6.81,47.56-7.53,11.7-.53,23.67,3.13,35.4,5.51Q446.11,30.54,553.61,52.61c3.46.7,4.86,2,4.84,5.68-.14,22.92,0,45.84-.18,68.75a11.27,11.27,0,0,1-2.59,6.57c-18.24,21.74-38.66,41-63.31,55.28-18.53,10.71-38.07,17.42-59.92,13.52-14.31-2.56-25.52-9.8-34.05-21.7a231.14,231.14,0,0,1-30.71-60.28C355.09,83.6,330.76,56.81,299.33,36,285.45,26.76,270.49,19.23,255.6,10.7Z" transform="translate(-4.55 -3.12)" style="fill:#868686"/><path d="M558.38,264.31c0,33.59,0,66.4-.12,99.21a6.3,6.3,0,0,1-2.73,4.66c-19.14,10-38.4,19.71-57.63,29.51C473,346.5,505.36,291.07,558.38,264.31Z" transform="translate(-4.55 -3.12)" style="fill:#868686"/></svg>