<svg id="Layer_1" data-name="Layer 1" xmlns="http://www.w3.org/2000/svg" viewBox="0 0 483.51 222.17"><path d="M187.17,205.83c-5.84,7.92-13.87,10.23-22.21,5.81s-7.87-12.45-5.62-21.07C170.71,147,181.58,103.3,192.67,59.65c2-7.7,4.34-11.84,15-11.09,25.3,1.8,50.82.58,77.94.58C274,30.2,259.35,24.66,239.93,29.69c7-9,16.92-10.91,30.13-6.22,20.72,7.35,34.37,23.23,46.35,40.21,24.66,35,38.39,74.21,39.28,117.07.3,14.68.88,30.66-10.52,43.05-2.69-3.35,1.74-12.15-7.83-10.23-21.37,0-42.75.13-64.12,0-4.1,0-8.19-1.06-12.28-1.63-2-3.23-4.56-6.25-6-9.73-7-17.06-19.26-24.88-38-23.82C202.53,179.2,192.1,188.82,187.17,205.83Z" transform="translate(-14.24 -21)" style="fill:#f31401"/><path d="M454.7,191.85c-.17,2.44,7.57,15.17,8,17.49,3.56,18.59-10.14,30.39-23.56,33.3-14.84,3.22-32-8.77-34.09-23.46-1.95-13.46,3.57-25.41,14.51-31.43,11.62-6.39,24.54-4.81,35.12,4.1l2.53-4.33m0-1c-20.51-15.83-49.54-8.94-57.29,16-2.72,8.75-7.75,11.19-15.7,11-6.8-.16-13.6-.29-20.4-.43.19-6.19.27-12.38.58-18.56,2.6-51.15-13.58-96.28-43.73-137a88.64,88.64,0,0,1-4.8-8.11,90.57,90.57,0,0,1,9.77-1.33c6.51-.21,13-.06,19.53-.06V48c7.16,0,14.42.75,21.45-.2,8.59-1.16,12.49,3.08,13.3,10.3,1.13,10,6.69,13.13,15.82,13,13.35-.2,26.73-.64,40,.26,4.72.33,10.9,3.06,13.5,6.75,15.7,22.23,34.53,43.48,44.36,68.22,7.07,17.79,3.32,40.66,1.27,60.95-.94,9.3-25,11-25.72,0M416.68,130c7.15,0,14.3.23,21.44,0,12.16-.47,17-10,10.37-20.29-3.15-4.88-5.8-10.44-10-14.16s-9.91-6.34-15.39-8c-4.17-1.25-9-.25-13.57-.25-26.44,0-28.07,1.65-27.33,28.05.28,10.31,4.42,14.44,15,14.68C403.68,130.1,410.18,130,416.68,130Zm17.62,97.39c7.14.06,13.94-6.29,14.06-13.14.14-7.89-7.06-15.52-14.48-15.31-7.05.19-14.22,7.52-14.33,14.64S426.56,227.3,434.3,227.37Z" transform="translate(-14.24 -21)" style="fill:#f31401"/><path d="M192.05,213.62l.21-7.8c6.89-16.1,18.83-23.88,33.59-21.89,13.8,1.87,23.29,12.82,25.73,29.71-4.09,7.75-6.44,17.52-12.62,22.87-17.15,14.84-45.43,3.13-46.79-20.92ZM221.62,199c-7.72-.19-14.89,7-14.8,14.76.08,6.49,7.44,13.55,14.15,13.57,8.51,0,14-5.09,14.38-13.34C235.67,206.52,229,199.21,221.62,199Z" transform="translate(-14.24 -21)" style="fill:#f41e08"/><path d="M14.28,172.51c24.83-1.32,49.67-2.37,74.48-4,21.49-1.47,42.93-3.67,64.4-5.49a13.29,13.29,0,0,1,3.62.39c-.29,5.95-.46,11.94-1.55,17.76-.19,1-4.35,1.93-6.62,1.81q-57.2-3-114.36-6.31c-6.69-.4-13.34-1.51-20-2.29Z" transform="translate(-14.24 -21)" style="fill:#867aca"/><path d="M182.26,63c-4.68,25-1.77,20.2-24.14,18.91-40.22-2.33-80.43-5-120.78-9.22Z" transform="translate(-14.24 -21)" style="fill:#867aca"/><path d="M49.32,106.26l93-6.06c7.45-.49,14.89-1.43,22.33-1.39,2.84,0,5.66,2.22,8.49,3.42-3,4.16,1.71,13.37-9.16,12.58-27.51-2-55.07-3.28-82.6-4.91-10.65-.64-21.3-1.42-31.95-2.14Z" transform="translate(-14.24 -21)" style="fill:#867aca"/><path d="M74.52,139.18c27.8-1.8,55.58-3.68,83.39-5.23,2.31-.13,6.88,2.67,6.8,2.91-1.43,4.35.08,10.83-8.38,10.17-20.67-1.6-41.4-2.37-62.09-3.71-6.66-.44-13.28-1.63-19.91-2.48Z" transform="translate(-14.24 -21)" style="fill:#867aca"/><path d="M337.34,213.57c9.57-1.92,5.14,6.88,7.83,10.23-9.94,19-29.43,20.68-50,2.53,13.24,3.64,25.23,10.86,35.88.17C334.26,223.29,335.31,217.94,337.34,213.57Z" transform="translate(-14.24 -21)" style="fill:#f41e08"/></svg>