<?xml version="1.0" encoding="utf-8"?>
<!-- Generator: Adobe Illustrator 24.3.0, SVG Export Plug-In . SVG Version: 6.00 Build 0)  -->
<svg version="1.1" xmlns="http://www.w3.org/2000/svg" xmlns:xlink="http://www.w3.org/1999/xlink" x="0px" y="0px"
	 viewBox="0 0 792 612" style="enable-background:new 0 0 792 612;" xml:space="preserve">
<style type="text/css">
	.st0{fill:#211C58;stroke:#000000;stroke-miterlimit:10;}
	.st1{opacity:0.5;fill:none;stroke:#F1F2F2;stroke-width:3;stroke-miterlimit:10;}
	.st2{opacity:0.5;}
	.st3{fill:#F1F2F2;}
	.st4{font-family:'MyriadPro-Regular';}
	.st5{font-size:10px;}
	.st6{opacity:0.5;fill:#F1F2F2;}
	.st7{font-size:43px;}
	.st8{opacity:0.5;fill:none;stroke:#F1F2F2;stroke-miterlimit:10;}
	.st9{font-size:14px;}
	.st10{font-size:19.7191px;}
	.st11{fill:#FFFFFF;}
	.st12{fill:none;stroke:#FFFFFF;stroke-miterlimit:10;}
</style>
<g id="background">
	<rect x="90" y="-90" transform="matrix(-1.346898e-10 1 -1 -1.346898e-10 702 -90)" class="st0" width="612" height="792"/>
</g>
<g id="Layer_2">
	<circle class="st1" cx="117" cy="246" r="31.9"/>
	<text transform="matrix(1 0 0 1 108.2575 242.8958)" class="st2"><tspan x="0" y="0" class="st3 st4 st5">App</tspan><tspan x="-3.5" y="12" class="st3 st4 st5">svelte</tspan></text>
	<circle class="st1" cx="117" cy="155.5" r="31.9"/>
	<text transform="matrix(1 0 0 1 102.2477 158.4703)" class="st6 st4 st5">main.js</text>
</g>
<g id="component">
	<circle class="st1" cx="185.4" cy="331.9" r="31.9"/>
	<text transform="matrix(1 0 0 1 170.2372 328.8728)" class="st2"><tspan x="0" y="0" class="st3 st4 st5">Header</tspan><tspan x="2.9" y="12" class="st3 st4 st5">svelte</tspan></text>
	<circle class="st1" cx="53.4" cy="331.9" r="31.9"/>
	<text transform="matrix(1 0 0 1 34.9023 328.8728)" class="st2"><tspan x="0" y="0" class="st3 st4 st5">ToDoList</tspan><tspan x="6.2" y="12" class="st3 st4 st5">svelte</tspan></text>
	<circle class="st1" cx="53.4" cy="421.9" r="31.9"/>
	<text transform="matrix(1 0 0 1 25.3772 422.8726)" class="st2"><tspan x="0" y="0" class="st3 st4 st5">ToDoListItem</tspan><tspan x="15.8" y="12" class="st3 st4 st5">svelte</tspan></text>
	<circle class="st1" cx="53.4" cy="521.2" r="31.9"/>
	<text transform="matrix(1 0 0 1 39.077 520.1024)" class="st2"><tspan x="0" y="0" class="st3 st4 st5">Button</tspan><tspan x="2.1" y="12" class="st3 st4 st5">svelte</tspan></text>
	<text transform="matrix(1 0 0 1 190.566 62.2002)" class="st6 st4 st7">SVELTE BUILD PROCESS</text>
</g>
<g id="lines">
	<rect x="283.3" y="129.1" class="st8" width="116.5" height="52.9"/>
	<text transform="matrix(1 0 0 1 288.0311 151.2445)" class="st2"><tspan x="0" y="0" class="st3 st4 st9">bundler app using</tspan><tspan x="36.2" y="16.8" class="st3 st4 st9">rollup</tspan></text>
	<g class="st2">
		<text transform="matrix(1 0 0 1 528.9022 158.47)" class="st3 st4 st10">public</text>
	</g>
	<g id="_x30_X8cPb_1_" class="st2">
		<g>
			<path class="st11" d="M575.6,190.2c0.5,1,0.9,1.8,1.4,2.8c1.2,0,2.8,0,4.3,0c2.4,0,3,0.8,2.4,3c-2.3,8.2-4.5,16.4-6.8,24.6
				c-0.5,1.7-1.1,2.2-2.8,2.2c-13.9,0-27.8,0-41.6,0c-2,0-2.6-0.7-2.6-2.6c0-9.1,0-18.1,0-27.2c0-1.9,0.7-2.6,2.5-2.6
				c0.3,0,0.6,0,0.9,0c1.5,0.2,2.5-0.4,3.1-1.7c0.8-1.6,2.2-2.3,3.9-2.1c2,0.3,3.4-0.5,4.8-1.9c3.8-4,7.7-7.8,11.6-11.6
				c1.5-1.5,2.6-1.5,4.1,0c4.7,4.7,9.3,9.4,14,14C575.9,188,576.1,189.1,575.6,190.2z M531.9,220.6c14.3,0,28.4,0,42.6,0
				c0-9.5,0-18.9,0-28.3c-6,0-11.9-0.1-17.8,0c-2.5,0.1-4.3-0.5-5.5-2.8c-0.4-0.8-1-1-1.9-1c-2.6,0-5.3,0.1-7.9,0
				c-1.9-0.1-3.2,0.4-4.1,2.1c-0.6,1.2-1.8,1.7-3.1,1.7c-0.8,0-1.6,0-2.4,0C531.9,201.8,531.9,211.2,531.9,220.6z M565.6,190.3
				c0.1-0.1,0.1-0.2,0.2-0.4c-1.5-1.5-3-2.9-4.5-4.4c-1.3-1.3-2.5-2.5-3.8-3.8c-0.5-0.5-0.8-1-0.2-1.6c0.6-0.6,1.1-0.3,1.6,0.2
				c0.1,0.1,0.2,0.2,0.4,0.4c2.6,2.6,5.2,5.1,7.7,7.7c0.5,0.5,0.9,1.1,1.4,1.9c1.7-0.5,4,1,5.3-1.1c-5.1-5.1-10-10.1-14.8-14.9
				c-4.1,4.1-8.2,8.2-12.4,12.3c0.7,0,1.6,0.1,2.4,0c2-0.2,3.4,0.6,4.5,2.3c1,1.6,1.9,1.8,3.9,1.1c-1.4-1.3-2.7-2.6-4-3.9
				c-0.5-0.5-0.9-1.1-0.2-1.7c0.7-0.6,1.2-0.2,1.7,0.3c1.6,1.7,3.3,3.3,5,5c0.3,0.3,0.7,0.6,1,0.6
				C562.4,190.4,564,190.3,565.6,190.3z M576.8,212.9c0.1,0,0.1,0,0.2,0c1.6-5.9,3.3-11.8,4.9-17.8c-1.8,0-3.4,0-5.1,0
				C576.8,201.1,576.8,207,576.8,212.9z"/>
		</g>
	</g>
	<text transform="matrix(0.9637 0 0 1 594.7922 200.748)" class="st2"><tspan x="0" y="0" class="st3 st4 st9">bundle.css</tspan><tspan x="0" y="16.8" class="st3 st4 st9">bundle.js</tspan></text>
	<g id="f7rAy9.tif" class="st2">
		<g>
			<path class="st3" d="M544.7,263.2c0-4.9,0-9.8,0-14.7c0-0.9,0.2-1.6,1-2.1c0.4-0.2,0.9-0.4,1.3-0.4c4.3,0,8.6,0,12.9,0
				c0.3,0,0.6,0.1,0.8,0.3c2.7,2.7,5.5,5.5,8.2,8.2c0.2,0.2,0.3,0.7,0.3,1c0,2.8,0,5.7,0,8.6c0,4.6,0,9.2,0,13.8
				c0,0.9-0.2,1.7-1,2.1c-0.4,0.2-0.9,0.4-1.3,0.4c-6.6,0-13.2,0-19.8,0c-1.4,0-2.3-1-2.3-2.5c0-2.1,0-4.2,0-6.4
				C544.7,268.8,544.7,266,544.7,263.2z M559.2,247.5c-0.2,0-0.4,0-0.6,0c-3.8,0-7.6,0-11.3,0c-0.9,0-1.1,0.2-1.1,1.1
				c0,9.7,0,19.5,0,29.2c0,0.9,0.2,1.1,1.1,1.1c6.4,0,12.8,0,19.2,0c0.9,0,1.1-0.2,1.1-1.1c0-7.1,0-14.2,0-21.3c0-0.2,0-0.4,0-0.6
				c-0.2,0-0.4,0-0.6,0c-1.7,0-3.4,0-5,0c-1.9,0-2.8-0.9-2.8-2.8C559.2,251.3,559.2,249.4,559.2,247.5z M566.3,254.4
				c-1.8-1.8-3.7-3.7-5.5-5.5c0,1.6,0,3.2,0,4.9c0,0.4,0.3,0.6,0.7,0.6C563.1,254.4,564.7,254.4,566.3,254.4z"/>
			<path class="st3" d="M556.9,270.4c1.9,0,3.9,0,5.8,0c0.2,0,0.4,0,0.5,0.1c0.2,0.2,0.5,0.4,0.5,0.7c0.1,0.4-0.2,0.6-0.6,0.7
				c-0.2,0-0.4,0.1-0.6,0.1c-3.8,0-7.6,0-11.4,0c-0.1,0-0.1,0-0.2,0c-0.6,0-1-0.3-1-0.8c0-0.5,0.4-0.8,1-0.8
				C553,270.4,555,270.4,556.9,270.4z"/>
			<path class="st3" d="M556.9,266.6c2,0,4,0,6,0c0.4,0,0.7,0.1,0.8,0.5c0,0.2,0,0.6-0.2,0.8c-0.1,0.2-0.4,0.2-0.6,0.2
				c-4,0-8,0-12,0c-0.5,0-0.9-0.3-0.9-0.8c0-0.4,0.4-0.7,0.9-0.7C552.9,266.6,554.9,266.6,556.9,266.6z"/>
			<path class="st3" d="M557,262.8c2,0,3.9,0,5.9,0c0.4,0,0.8,0.1,0.9,0.6c0.1,0.4-0.1,0.8-0.5,0.9c-0.2,0-0.4,0-0.6,0
				c-3.8,0-7.7,0-11.5,0c-0.1,0-0.2,0-0.3,0c-0.5,0-0.8-0.4-0.8-0.8c0-0.4,0.4-0.7,0.9-0.8c0.6,0,1.2,0,1.8,0
				C554.1,262.8,555.5,262.8,557,262.8z"/>
		</g>
	</g>
	<text transform="matrix(0.9637 0 0 1 585.1041 268.1729)" class="st6 st4 st9">index.html</text>
	<g id="f7rAy9.tif_1_" class="st2">
		<g>
			<path class="st11" d="M544.7,313.2c0-4.9,0-9.8,0-14.7c0-0.9,0.2-1.6,1-2.1c0.4-0.2,0.9-0.4,1.3-0.4c4.3,0,8.6,0,12.9,0
				c0.3,0,0.6,0.1,0.8,0.3c2.7,2.7,5.5,5.5,8.2,8.2c0.2,0.2,0.3,0.7,0.3,1c0,2.9,0,5.7,0,8.6c0,4.6,0,9.2,0,13.8
				c0,0.9-0.2,1.7-1,2.1c-0.4,0.2-0.9,0.4-1.3,0.4c-6.6,0-13.2,0-19.8,0c-1.4,0-2.3-1-2.3-2.5c0-2.1,0-4.2,0-6.4
				C544.7,318.8,544.7,316,544.7,313.2z M559.2,297.5c-0.2,0-0.4,0-0.6,0c-3.8,0-7.6,0-11.3,0c-0.9,0-1.1,0.2-1.1,1.1
				c0,9.7,0,19.5,0,29.2c0,0.9,0.2,1.1,1.1,1.1c6.4,0,12.8,0,19.2,0c0.9,0,1.1-0.2,1.1-1.1c0-7.1,0-14.2,0-21.3c0-0.2,0-0.4,0-0.6
				c-0.2,0-0.4,0-0.6,0c-1.7,0-3.4,0-5,0c-1.9,0-2.8-0.9-2.8-2.8C559.2,301.3,559.2,299.4,559.2,297.5z M566.3,304.4
				c-1.8-1.8-3.7-3.7-5.5-5.5c0,1.6,0,3.2,0,4.9c0,0.4,0.3,0.6,0.7,0.6C563.1,304.4,564.7,304.4,566.3,304.4z"/>
			<path class="st11" d="M556.9,320.4c1.9,0,3.9,0,5.8,0c0.2,0,0.4,0,0.5,0.1c0.2,0.2,0.5,0.4,0.5,0.7c0.1,0.4-0.2,0.6-0.6,0.7
				c-0.2,0-0.4,0.1-0.6,0.1c-3.8,0-7.6,0-11.4,0c-0.1,0-0.1,0-0.2,0c-0.6,0-1-0.3-1-0.8c0-0.5,0.4-0.8,1-0.8
				C553,320.4,555,320.4,556.9,320.4z"/>
			<path class="st11" d="M556.9,316.6c2,0,4,0,6,0c0.4,0,0.7,0.1,0.8,0.5c0,0.2,0,0.6-0.2,0.8c-0.1,0.2-0.4,0.2-0.6,0.2
				c-4,0-8,0-12,0c-0.5,0-0.9-0.3-0.9-0.8c0-0.4,0.4-0.7,0.9-0.7C552.9,316.6,554.9,316.6,556.9,316.6z"/>
			<path class="st11" d="M557,312.8c2,0,3.9,0,5.9,0c0.4,0,0.8,0.1,0.9,0.6c0.1,0.4-0.1,0.8-0.5,0.9c-0.2,0-0.4,0-0.6,0
				c-3.8,0-7.7,0-11.5,0c-0.1,0-0.2,0-0.3,0c-0.5,0-0.8-0.4-0.8-0.8c0-0.4,0.4-0.7,0.9-0.8c0.6,0,1.2,0,1.8,0
				C554.1,312.8,555.5,312.8,557,312.8z"/>
		</g>
	</g>
	<text transform="matrix(0.9637 0 0 1 585.1041 318.1729)" class="st6 st4 st9">global.css</text>
	<g class="st2">
		<text transform="matrix(1 0 0 1 697.8722 158.1053)" class="st3 st4 st10">deploy</text>
	</g>
	<text transform="matrix(1 0 0 1 299.7418 261.5479)" class="st6 st4 st9">npm run build</text>
	<g id="iAvFmB_1_" class="st2">
		<g>
			<path class="st12" d="M449.7,504.4c-0.2,0.6-0.4,1.3-0.8,1.7c-0.9,0.9-1.9,2.2-2.9,2.4c-2.9,0.3-5.9,0.1-9.1,0.1
				c0-1.3,0-2.5,0-4.1c2.6,0,5.2,0,8,0c0-14.8,0-29.2,0-43.9c-17.8,0-35.5,0-53.5,0c-0.1-2.8-0.7-5.4,0.7-7.7
				c0.9-1.5,2.4-2.1,4.1-2.1c5.8,0,11.6,0,17.5,0c9.6,0,19.2,0.1,28.8-0.1c3.5-0.1,6.1,0.7,7.2,4.3
				C449.7,471.5,449.7,488,449.7,504.4z M429.3,455.6c0-1.5-1.4-2.9-2.9-2.9c-1.5,0-2.8,1.4-2.8,2.8c0,1.5,1.4,2.8,2.9,2.8
				C428.1,458.3,429.3,457.1,429.3,455.6z M436.6,455.5c0-1.5-1.5-2.9-3-2.8c-1.5,0.1-2.8,1.4-2.7,2.9c0,1.5,1.4,2.8,3,2.7
				C435.4,458.3,436.6,457,436.6,455.5z M443.8,455.6c0-1.5-1.4-2.9-3-2.8c-1.5,0-2.8,1.4-2.8,2.8c0,1.5,1.4,2.8,3,2.8
				C442.6,458.3,443.8,457.1,443.8,455.6z"/>
			<path class="st12" d="M378.9,471.7c0.2-0.4,0.4-0.9,0.5-1.3c0.9-2.8,3.1-4.5,6.1-4.6c9.4,0,18.9,0,28.3,0c3.2,0,5.8,2,6.1,5.2
				c0.3,3.1,0.1,6.2,0.1,9.5c-1.3,0-2.6,0-4,0c-0.1-0.8-0.2-1.4-0.2-2c0-1.9,0-3.9,0-5.8c0-1.7-0.8-2.5-2.5-2.6
				c-0.5-0.1-0.9-0.1-1.4-0.1c-8.2,0-16.4,0-24.5,0c-3.3,0-3.9,0.6-3.9,3.8c0,11.8,0,23.6,0,35.4c0,0.8,0.1,1.5,0.1,2.7
				c7.9,0,15.6,0,23.6,0c0.2,3,0.4,5.6,0.6,8.5c-0.5,0-1.1,0.2-1.7,0.2c-6.6,0-13.1,0-19.7,0c-4.2,0-6.1-1.4-7.3-5.5
				c-0.1-0.2-0.2-0.5-0.3-0.7C378.9,500.2,378.9,486,378.9,471.7z M402.6,516.5c0-1.5-1.4-2.9-2.9-2.9c-1.5,0-2.8,1.4-2.9,2.8
				c0,1.5,1.4,2.9,2.9,2.9C401.2,519.3,402.5,517.9,402.6,516.5z"/>
			<path class="st12" d="M411.1,502.5c0-4.8,0-9.5,0-14.3c0-2.8,1-3.8,3.8-3.8c4.9,0,9.8,0,14.6,0c2.6,0,3.7,1.1,3.7,3.7
				c0,9.6,0,19.2,0,28.8c0,2.7-1.1,3.7-3.7,3.8c-4.9,0-9.9,0-14.8,0c-2.6,0-3.6-1-3.6-3.7C411.1,512.2,411.1,507.4,411.1,502.5z
				 M429.8,514.3c0-9,0-17.7,0-26.6c-5.2,0-10.3,0-15.5,0c0,8.9,0,17.6,0,26.6C419.6,514.3,424.7,514.3,429.8,514.3z M422,515.6
				c-1,0.1-1.7,0.7-1.7,1.8c0,1.2,0.7,1.9,1.9,1.8c1.1,0,1.8-0.7,1.7-1.8C424,516.3,423.3,515.6,422,515.6z"/>
		</g>
	</g>
	<text transform="matrix(1 0 0 1 378.4297 437.7432)" class="st6 st4 st9">browser preview</text>
	<line class="st8" x1="117" y1="187.4" x2="117" y2="214.1"/>
	<line class="st8" x1="95.7" y1="269.7" x2="62.7" y2="302.7"/>
	<line class="st8" x1="139.6" y1="268.5" x2="167.5" y2="305.5"/>
	<line class="st8" x1="53.4" y1="363.8" x2="53.4" y2="390"/>
	<line class="st8" x1="53.4" y1="452.8" x2="53.4" y2="488.3"/>
	<line class="st8" x1="148.9" y1="155.5" x2="283.3" y2="155.5"/>
	<line class="st8" x1="400.9" y1="155.5" x2="523" y2="155.5"/>
	<line class="st8" x1="592.7" y1="155.5" x2="675.5" y2="155.5"/>
	<line class="st8" x1="341.3" y1="250.8" x2="342.3" y2="182.4"/>
	<line class="st8" x1="386.2" y1="261.4" x2="426.7" y2="328.9"/>
	<line class="st8" x1="526.9" y1="164.5" x2="426.7" y2="328.9"/>
	<line class="st8" x1="427.2" y1="328.9" x2="427.2" y2="421.9"/>
</g>
<g id="component_tree">
</g>
</svg>
