<svg id="Layer_1" data-name="Layer 1" xmlns="http://www.w3.org/2000/svg" viewBox="0 0 496.38 332.02"><path d="M468.72,292.19c-7.86,36.17-34.91,48.33-56,48.74-26.9.53-46.39-16.42-56.48-48.74h-4.29q-83.22,0-166.45-.07c-3.53,0-4.93.69-5.78,4.65-5.45,25.4-29.48,44.47-55.1,44.24a56.7,56.7,0,0,1-54.73-45.19,37.16,37.16,0,0,0-1.17-3.63c-10.31,0-20.65-.46-30.93.1-18,1-30-14.15-29.95-29.9Q8.41,150.67,7.81,39C7.74,24.48,18,8.88,38,9c15.16.09,30.32,0,45.49,0q112,0,223.93,0c16.58,0,29.2,10,30.47,24.79.68,8,.18,16,.21,24,0,2.82,0,5.64,0,8.38,1.79,1.43,3.69.77,5.44.81,20.48.43,41-.68,61.45.72,42.84,2.93,80.32,33.39,93.2,73.08A118.74,118.74,0,0,1,504,177c.16,28.49-.34,57,.2,85.47.31,16.18-12.8,30.92-29.65,29.71C472.56,292.06,470.59,292.19,468.72,292.19ZM322.14,276.74V271q0-115.48,0-231c0-11-3.95-14.95-15-14.95L55.11,25c-6.33,0-12.66-.15-19,0-7.48.18-12.22,4.87-12.23,12.29q-.08,113.23,0,226.47c0,7.6,3.69,12.23,11.3,12.63,11.1.58,22.25.15,33.5.15.49-2.05.91-3.82,1.34-5.59,6.07-25.24,31.18-44.1,56.93-42.75a56.72,56.72,0,0,1,52.51,43.15c1.06,4.26,2.67,5.49,7,5.47,36.82-.17,73.65-.1,110.48-.1ZM338.65,83V276.51c4.54,0,8.84-.17,13.11.06,3.3.17,4.74-.59,5.59-4.31,8.46-37.25,51.5-55.64,83.87-36,13.58,8.25,22.44,20,26.15,35.62.4,1.67-.17,4.39,2.76,4.67,9.86.94,18.14-2.4,18.05-13.69-.23-28.83-.06-57.66-.08-86.49,0-9.71-1.05-19.35-4.25-28.52C471.14,111.49,446.08,89.19,407.6,84,385,81,362,83.68,338.65,83ZM125.7,325.13c16.36,1.29,39.93-13.62,40.07-40,.12-24.1-18.79-40.61-38.62-41-23.4-.51-42.72,17.55-43,39.56C83.93,306.53,102.31,324.91,125.7,325.13ZM453,284.81c.81-22.11-18.23-40.57-38.57-40.79-23.13-.25-42.38,17.89-42.43,39.46,0,23.55,17.8,41.34,41.11,41.76C433.69,325.62,454.18,306.52,453,284.81Z" transform="translate(-7.81 -9)" style="fill:#672772"/><path d="M322.14,276.74H296.9c-36.83,0-73.66-.07-110.48.1-4.29,0-5.9-1.21-7-5.47A56.72,56.72,0,0,0,127,228.22C101.2,226.87,76.09,245.73,70,271c-.43,1.77-.85,3.54-1.34,5.59-11.25,0-22.4.43-33.5-.15-7.61-.4-11.29-5-11.3-12.63q-.06-113.23,0-226.47c0-7.42,4.75-12.11,12.23-12.29,6.33-.15,12.66,0,19,0l252,.07c11.09,0,15,3.9,15,15q0,115.49,0,231Zm-149-189.83q-40,0-79.94,0c-13.61,0-20.35,6.63-20.36,20.08q0,43.71,0,87.44c0,13.48,7.11,20.44,20.73,20.45q79.44,0,158.89,0c13.53,0,21-6.79,21.16-20.32.28-29.31.2-58.62,0-87.94-.08-13.16-9.2-20.06-20.57-19.87C226.46,87.23,199.8,86.91,173.15,86.91Zm94.11-29c6.33,0,12.68.24,19-.08,4.11-.21,5.23,1.35,5,5.18a121.09,121.09,0,0,0,0,14c.32,5.56,3.47,8.28,8.71,8.05,4.46-.2,7.14-3.22,7.21-8.38.08-5.66.13-11.33,0-17-.28-10.49-7.65-17.66-18.27-17.72-13.66-.09-27.33,0-41,0-6.09,0-9.55,2.9-9.56,7.79s3.6,8.05,9.41,8.14C254.26,58,260.76,57.89,267.26,57.89Zm39.92,56.32c0-2.33.07-4.67,0-7-.17-4.75-2.81-7.63-7.21-8a7.92,7.92,0,0,0-8.48,6.85,54.63,54.63,0,0,0,0,15.43c.77,5,3.85,7.18,8.77,6.79,4.58-.36,6.78-2.9,6.91-8.06C307.23,118.21,307.18,116.21,307.18,114.21Z" transform="translate(-7.81 -9)" style="fill:#51c1b1"/><path d="M338.65,83c23.36.71,46.3-2,69,1.07,38.48,5.15,63.54,27.45,76.25,63.83,3.2,9.17,4.24,18.81,4.25,28.52,0,28.83-.15,57.66.08,86.49.09,11.29-8.19,14.63-18.05,13.69-2.93-.28-2.36-3-2.76-4.67-3.71-15.59-12.57-27.37-26.15-35.62-32.37-19.66-75.41-1.27-83.87,36-.85,3.72-2.29,4.48-5.59,4.31-4.27-.23-8.57-.06-13.11-.06Zm72.83,101.9c15.49,0,31,0,46.49,0,7.72,0,10.57-2.77,10.65-10.53.07-6.49,0-13-.39-19.47-1.9-28.82-24.45-52-53.27-54-17.13-1.19-34.32-.39-51.47-.36-7,0-9.54,2.9-9.55,9.91q0,31.74,0,63.48c0,8.46,2.5,11,11,11Q388.23,184.92,411.48,184.87Zm-37,29h0c3.48,0,7,.2,10.45-.05,5-.38,8.2-4,8-8.42s-3.3-7.33-8.29-7.44c-6.63-.15-13.27-.14-19.9,0-5.42.1-8.52,2.94-8.66,7.55-.15,4.82,3,8,8.5,8.36C367.81,214,371.14,213.85,374.45,213.85Z" transform="translate(-7.81 -9)" style="fill:#f9d10a"/><path d="M125.7,325.13c-23.39-.22-41.77-18.6-41.51-41.52.24-22,19.56-40.07,43-39.56,19.83.43,38.74,16.94,38.62,41C165.63,311.51,142.06,326.42,125.7,325.13ZM125.44,257c-16.67,0-28.2,11.34-28.61,27.33-.35,13.41,9.19,28.05,27.79,28.45a27.8,27.8,0,0,0,28.08-27.84C152.9,267.87,137.9,256.24,125.44,257Z" transform="translate(-7.81 -9)" style="fill:#a3a0a3"/><path d="M453,284.81c1.16,21.71-19.33,40.81-39.89,40.43C389.82,324.82,372,307,372,283.48c.05-21.57,19.3-39.71,42.43-39.46C434.79,244.24,453.83,262.7,453,284.81Zm-40.38-27.89c-14.32-1-28.35,10.53-28.3,27.8,0,16.24,12.27,28.06,28.35,28.07,14.24,0,27.18-12.13,27.56-27.85C440.61,270,426.8,256,412.64,256.92Z" transform="translate(-7.81 -9)" style="fill:#a3a0a3"/><path d="M173.15,86.91c26.65,0,53.31.32,79.95-.15,11.37-.19,20.49,6.71,20.57,19.87.16,29.32.24,58.63,0,87.94-.13,13.53-7.63,20.31-21.16,20.32q-79.44,0-158.89,0c-13.62,0-20.72-7-20.73-20.45q-.06-43.73,0-87.44c0-13.45,6.75-20.07,20.36-20.08Q133.19,86.89,173.15,86.91Zm84.59,110.45c.09-1.05.24-2,.24-3,0-28.82-.06-57.64.08-86.46,0-5-2.54-5.71-6.6-5.7q-78.46.06-156.92,0c-5.78,0-6.45.73-6.45,6.76q0,41.49,0,83c0,7,.14,7.09,6.88,7.09q73.47,0,146.94,0C247.05,199,252.2,199.24,257.74,197.36Z" transform="translate(-7.81 -9)" style="fill:#672772"/><path d="M267.26,57.89c-6.5,0-13,.08-19.5,0-5.81-.09-9.42-3.31-9.41-8.14s3.47-7.78,9.56-7.79c13.67,0,27.34-.08,41,0,10.62.06,18,7.23,18.27,17.72.15,5.67.1,11.34,0,17-.07,5.16-2.75,8.18-7.21,8.38-5.24.23-8.39-2.49-8.71-8.05a121.09,121.09,0,0,1,0-14c.21-3.83-.91-5.39-5-5.18C279.94,58.13,273.59,57.89,267.26,57.89Z" transform="translate(-7.81 -9)" style="fill:#672772"/><path d="M307.18,114.21c0,2,.05,4,0,6-.13,5.16-2.33,7.7-6.91,8.06-4.92.39-8-1.79-8.77-6.79a54.63,54.63,0,0,1,0-15.43A7.92,7.92,0,0,1,300,99.2c4.4.39,7,3.27,7.21,8C307.25,109.54,307.18,111.88,307.18,114.21Z" transform="translate(-7.81 -9)" style="fill:#672772"/><path d="M411.48,184.88q-23.25,0-46.5,0c-8.54,0-11-2.52-11-11q0-31.74,0-63.48c0-7,2.51-9.9,9.55-9.91,17.15,0,34.34-.83,51.47.36,28.82,2,51.37,25.18,53.27,54,.43,6.5.46,13,.39,19.47-.08,7.76-2.93,10.51-10.65,10.53C442.47,184.9,427,184.87,411.48,184.88Zm41-16.22c0-3.48.05-6.45,0-9.41-.53-24.06-18.09-42.58-42.93-42.61-12.33,0-24.66-.07-37-.1-.82,0-1.67,0-2.11.58v51.54Z" transform="translate(-7.81 -9)" style="fill:#672772"/><path d="M374.45,213.85c-3.31,0-6.64.16-9.95,0-5.48-.31-8.65-3.54-8.5-8.36.14-4.61,3.24-7.45,8.66-7.55,6.63-.12,13.27-.13,19.9,0,5,.11,8,3,8.29,7.44s-3,8-8,8.42c-3.47.25-7,.05-10.45.05Z" transform="translate(-7.81 -9)" style="fill:#672772"/><path d="M125.44,257c12.46-.71,27.46,10.92,27.26,27.94a27.8,27.8,0,0,1-28.08,27.84c-18.6-.4-28.14-15-27.79-28.45C97.24,268.29,108.77,257,125.44,257ZM124.92,273c-7.32,0-11.87,4.47-11.85,11.65a12,12,0,0,0,11.79,12.15c6.32.06,12-5.61,12-12.09C136.94,277.89,132,273,124.92,273Z" transform="translate(-7.81 -9)" style="fill:#672772"/><path d="M412.64,256.92c14.16-.92,28,13.12,27.61,28-.38,15.72-13.32,27.86-27.56,27.85-16.08,0-28.31-11.83-28.35-28.07C384.29,267.45,398.32,255.88,412.64,256.92Zm12.12,27.7c0-6.12-5.94-12.17-12.12-12.26s-12.22,5.82-12.36,12c-.16,6.51,5.84,12.54,12.35,12.43A12.69,12.69,0,0,0,424.76,284.62Z" transform="translate(-7.81 -9)" style="fill:#672772"/><path d="M257.74,197.36c-5.54,1.88-10.69,1.67-15.83,1.67Q168.44,199,95,199c-6.74,0-6.88-.12-6.88-7.09q0-41.48,0-83c0-6,.67-6.76,6.45-6.76q78.46,0,156.92,0c4.06,0,6.63.7,6.6,5.7-.14,28.82-.06,57.64-.08,86.46C258,195.34,257.83,196.31,257.74,197.36Z" transform="translate(-7.81 -9)" style="fill:#ee3673"/><path d="M124.92,273c7,0,12,4.89,12,11.71-.06,6.48-5.7,12.15-12,12.09a12,12,0,0,1-11.79-12.15C113.05,277.47,117.6,273,124.92,273Z" transform="translate(-7.81 -9)" style="fill:#a3a0a3"/><path d="M424.76,284.62a12.69,12.69,0,0,1-12.13,12.17c-6.51.11-12.51-5.92-12.35-12.43.14-6.18,6.23-12.09,12.36-12S424.8,278.5,424.76,284.62Z" transform="translate(-7.81 -9)" style="fill:#a3a0a3"/></svg>