<?xml version="1.0" encoding="utf-8"?>
<!-- Generator: Adobe Illustrator 24.3.0, SVG Export Plug-In . SVG Version: 6.00 Build 0)  -->
<svg version="1.1" id="Layer_1" xmlns="http://www.w3.org/2000/svg" xmlns:xlink="http://www.w3.org/1999/xlink" x="0px" y="0px"
	 viewBox="0 0 179.1 154" style="enable-background:new 0 0 179.1 154;" xml:space="preserve">
<style type="text/css">
	.st0{fill:#FFFFFF;}
</style>
<g id="Layer_1-2">
	<g id="EjBSXR.tif">
		<path class="st0" d="M176.2,80.1c-10-0.1-19.3-0.2-28.6-0.2c-3.8-13.6-13.2-20.9-27.7-21.5c-14-0.6-24.3,6.4-29.5,20.8
			c-0.4-0.5-0.7-0.9-0.9-1.2C87,64.8,73.3,57.2,59.9,57.8c-9.3,0.4-17.6,3.7-23.3,11.5c-1,1.4-2.2,3-2.4,4.6c-0.6,4.7-3.3,5.1-7.3,5
			C19.5,78.5,12,78.7,4,78.7c4.2-9.6,10.1-18.3,17.3-25.9c7.3-7.4,15.2-13.8,22.8-20.6c-7.2-5.3-16.3-9.7-19.8-20.8
			c7,3.8,13.2,7,19.3,10.3c0.2-0.4,0.6-0.6,0.9-1C40.5,14.4,35.8,8.4,34,0c8.7,6.6,16,13.2,26,17c-2.7-5.7-5.1-10.6-7.8-16.6
			c1.6,0.4,2,0.4,2.2,0.5C64.3,12.4,77.2,16.6,92,18.7c36.9,5.1,65.6,22.8,82.5,57.1C174.9,77.3,175.5,78.7,176.2,80.1z"/>
		<path class="st0" d="M16.8,85.6h4.6c4.5,0.3,9-0.6,13.1-2.6c11.4-5.3,22.8-4.3,33.7,2c0.4,0.2,0.8,0.4,1.2,0.7
			c7.7,7.4,17.2,8.9,27.2,7.8c1.5-0.1,2.9-0.6,4.2-1.4c2.5-1.5,4.8-3.1,7.3-4.7c12.8-8.5,25.8-9.2,39.4-2.4c2.2,1.1,4.6,1.7,7.1,1.9
			c6.3,0.2,12.6,0.2,18.9,0.2c2.5,0,4.8,0.6,5.4,3c0.5,2-0.2,4.2-0.5,6.4c0,0.1-0.1,0.2-0.2,0.2c-5.7,3.7-5.1,9.8-6.1,15.4
			c-2.1,11.4-5.4,22.3-14,30.8c-11,10.9-28.4,14.1-42.8,8c-14-5.8-22.5-19.1-22.4-35c0-2.5-0.6-4.7-3.1-4.6c-3,0.1-3.7,2.6-3.8,5.4
			c-0.5,21.1-16.4,36.5-37.4,36.3c-17.1-0.1-30.6-8.9-36.5-24.9c-2.8-7.8-4-16.3-5.6-24.5c-0.4-2.2-0.5-4.3-2.6-5.8
			c-1.4-1.1-2.5-2.5-3.2-4.2c-2-4.1,0.6-8,5.1-8C9.4,85.4,13.1,85.4,16.8,85.6z M20.4,116c-0.3,16,12.5,29.2,28.5,29.5
			S78.1,133,78.4,117c0.3-16-12.5-29.2-28.5-29.5c0,0-0.1,0-0.1,0c-15.9-0.3-29,12.2-29.4,28.1C20.4,115.8,20.4,115.9,20.4,116z
			 M100.8,116.9c-0.3,16,12.5,29.2,28.5,29.5c16,0.3,29.2-12.5,29.5-28.5c0.3-16-12.5-29.2-28.5-29.5c-0.1,0-0.3,0-0.4,0
			C114,88.3,101,101,100.8,116.9z"/>
		<path class="st0" d="M58.2,104.8c-4.1,8.5,0.6,15,9.8,14.5c-1,6-6.6,10.1-12.6,9.1c-0.2,0-0.4-0.1-0.6-0.1
			c-6.4-1.1-10.8-7.1-9.9-13.5C45.9,108,51.2,103.9,58.2,104.8z"/>
		<path class="st0" d="M110.9,119.7c10.2,0.5,13.7-6.8,10-14.4c6.8-0.7,12.6,3.7,13.2,10.3c0.7,6.6-3.9,12.5-10.5,13.4
			c-6,1-11.7-3-12.7-9C110.9,119.9,110.9,119.8,110.9,119.7z"/>
	</g>
</g>
</svg>
